/* XPM */
static char *dGh1bWIyLWdyYXktYXNwaGFsdC10ZXh0dXJlLWFzcGg_[] = {
/* columns rows colors chars-per-pixel */
"50 50 73 1 ",
"  c gray18",
". c #32312F",
"X c #2F2F30",
"o c #353535",
"O c #383736",
"+ c #373837",
"@ c #393937",
"# c #363638",
"$ c #383739",
"% c #373839",
"& c #3C3C3C",
"* c #403F3E",
"= c #3F403F",
"- c #41413F",
"; c #3E3F40",
": c #403F40",
"> c #3F4041",
", c #434444",
"< c #484746",
"1 c #474847",
"2 c #494847",
"3 c #464748",
"4 c #474849",
"5 c #4B4C4B",
"6 c #504F4C",
"7 c #4F504D",
"8 c #50504C",
"9 c #52514E",
"0 c #4C4F51",
"q c #4E4F51",
"w c #4E5050",
"e c #4F5052",
"r c #4F5252",
"t c #525250",
"y c #535452",
"u c #545451",
"i c #545453",
"p c #525355",
"a c #525456",
"s c #565756",
"d c #585755",
"f c #555857",
"g c #595957",
"h c #5B5B57",
"j c #535658",
"k c #555758",
"l c #575759",
"z c #565858",
"x c #575959",
"c c #595A5B",
"v c #5B5C5B",
"b c #5D5C58",
"n c #595B5C",
"m c #5B5C5C",
"M c #605F5A",
"N c #605F5D",
"B c #5F605E",
"V c #60605C",
"C c #62615E",
"Z c #5D5F61",
"A c #5F6161",
"S c #5F6261",
"D c #5E6263",
"F c #606262",
"G c #636462",
"H c #636564",
"J c #666767",
"K c #686966",
"L c #636768",
"P c #666969",
"I c #6B6D6B",
"U c #686C6C",
"Y c #696E71",
/* pixels */
"&,4,O5@@,,,5:,snq3,5f344t55,19,@c,,=45,ay45rr59,y2",
"&&OU3&&>5r&@3,6m54s2x,,2yg,Bf,@;,,5tyy5=&4,5pqgtc5",
"*9@a3$>rt79r@,3s<,,,5,-&44,B5,x4&,399V5&,455st559v",
"*<@*&,&3355,435S,-O,ay5,&5222tc5&@,<9&&,@>t1sstSs7",
"3>#;XX$44&&3q54t@ &45545ts5,artn9t55,5f3-,5,,4jYSa",
"k>#3%o;3S>3;,5<5&-1&,f5c5294tt5Jcnnm354,4q74*5r2xy",
"4;&>,@,>4@4j5,g,6M25tJ19f&-3-&5pZtt53@;47c,@&,4231",
",@3&,&%;4&5t39b,39tf42357c3,231i@&r3t,&34a5,,55tyB",
"53O&@33,5tfgHi5;,,,@f9924c5,t34<&&5,pc;459,cp4-944",
":32O&&,s5,57t>,&@&,7,&2,34<2&&5@,O3,8skHS3,r5<&,>4",
"5:o*5p,4,%,s5&3yyH,2,,i54,rm3<,,-o$;&53rn4@,,i&65y",
"353@r,>@4,5t3,ym9s335ri,5t35t92-,&&o+&%&55,-3K5,t9",
"&,p&55,&5,3&,3q5&3t3@53st9,&*,535,,3,,&3454>3,**45",
"5&3;45,5,o15tZtt@&343s5c4159@,q5&&,st-@>>4,5r44g19",
"t,,&3&3a53ftms5:&32,sm7IF3f7,-3:3@#35,1,,>,0q44ia5",
"5&&t:3,;597,4&o-&3,@st,aidq5&3qpsr,5,&&43&%45r,kc,",
"O@&t&@@;3$>>54ya&9-@4,&i553q5ss35p;qc5@3qO 4i4HIt3",
"33sN5;,,7;>&yG1&&99-34sV35,s35c33s,;,6q54&%52cMi,,",
"&4r5,$;4S;#&4x,O,9<,654s33cI93tS3t4&,4q,,,>,$3,3mt",
"Ot5Sn;%,,>3&,jq,42,4y5qn&t525imU55tq,,55x5453@34s3",
";q5si4&45rt,3-4FS545y&5m46Jit55c55ak4565afp3&-ksi3",
"54c5J&,qr9g42,3V5935k5sc4ssnst,3&535pm4,55V3&5t1:t",
"n,2&,,@&5t5,-+&-443&,,S543<VF5,,54,,Ng3,5gi4rraiqd",
"5;,3*3&@&-33&&4,q&,o&&qt3-i569<p5-&5kt3,,34yd35c5x",
"cixy,%>&@2,,y,,-4,4gst,595n5335t5s,<,,*,5,@,,35<d5",
"5,qs5#;O&-&@,,o,&,gg5ig9s53t<3si,334565355psgbb54>",
"5,>%,>;$i9,&&f,&35s,,<f5ci,tq;;qs3&5k:5,5,rS5<,,95",
",4,o=>34bd,a545,4p4,5p55,F55t&,;k9,,4,&:&35btFs5pp",
"=75oo,f,&,,53<5s4x43c569kUv<5q,,53ip,55&,5s5tni4Fp",
"&fL&X&+@&iKi54t3,ms3Fmi55pt5qn53t2pss5:&5tg35rscKt",
"&rv@.&@@&cb4q3s5tst3m5bi53&<43tks,44nt&395,445kstt",
"24&o@3-4,s,43-&,tc44,5t55t5<,,tF5,3ssr4ptsrd4,525q",
"1,3o,4&t5q3,;&%&1a5,,tgt45c5,c9t5,;355c55dtk53F65q",
"5,,43%>,;,,,;,:3,,a9,5V955md*tq;,;,3ipi,55sbstb353",
"7qnm5;@,%%3X$4q;,>9Vcs55iiFK5,&&,s44,,-,54,,5st5f,",
"a144;&&@&&;&o,,:0>,,,,,i53b<,,3nq5&45t3,<*<r5;55ta",
"t>,,&@,&,5&2,;4@5>,O&-V51*5nVt,55,*3bq3-4d45dtam5m",
"n594k59o5g,&&,3q454454fr3r3bn5,::5,3bm3,45J435r2,y",
";19tm52,@f,2*43Zc93qx,sG4sJbst3t,55p4sr3isp,#5c954",
"&armm335&-*@,iaks2459,4a,qy355sJp5jj3,39b5t54Or5f,",
"O55t5,p5-94-@5t@17=3i5tn,5gnt5cI,54,,55353;,@&;3B7",
"35ss3,&#&f5y443&-99-355f3,5F34g41g4&;46<,,,3,n5354",
"&&,g,-,,&sy,t5q5&9,>2,1B54454pk34p;3pt34q@X556UK4,",
"&@&r&@r3&vi-4,=5@,-#95%55s5q55drty3t5,o,3#o3g55Fm,",
"s,,,,&t&,g-3k3;@>52&nbtUFtt9@,33p,@4,&431&,54q49v1",
"9&3&,@3&1@,sxJn5&&,45n4m9-9q,>5,;%&5t;&,>,,5a45c59",
",&4,&,p,&o&-3035&,92&p5Vr5,1@374,,4t5,*<,43,<3,344",
",5a%,,495,&333ms,54,,45,5y3,544,4;&&;@#>3r2-<f4&7t",
"1,o>f&3-3@4f4&,bvJ<<5tc55,5b551,,O&%%,,,a4&>&P,557",
"2>-O3,&,434i5,,<,5,5O&22,qjp&>-,&o&33rpSS5&31,+95a"
};
