/* XPM */
static char *_4f92de61a564fbd8bea49ba134c26cfW7tVEwfJqLvux7JO[] = {
/* columns rows colors chars-per-pixel */
"50 50 237 2 ",
"   c None",
".  c black",
"X  c #000001",
"o  c #010101",
"O  c #020201",
"+  c #030301",
"@  c #040401",
"#  c #050401",
"$  c #050501",
"%  c #070701",
"&  c #080701",
"*  c #080801",
"=  c #090801",
"-  c #090901",
";  c #0A0901",
":  c #0B0A01",
">  c #0C0C01",
",  c #0D0C01",
"<  c #0E0D01",
"1  c #0D0C02",
"2  c #0F0E02",
"3  c #100E02",
"4  c #100F02",
"5  c #121101",
"6  c #131101",
"7  c #111002",
"8  c #151402",
"9  c #171502",
"0  c #1A1801",
"q  c #1B1902",
"w  c #1C1A02",
"e  c #1E1C02",
"r  c #201D01",
"t  c #221F02",
"y  c #232002",
"u  c #242102",
"i  c #252202",
"p  c #252302",
"a  c #262302",
"s  c #2A2602",
"d  c #2A2702",
"f  c #312D02",
"g  c #342F02",
"h  c #343002",
"j  c #353002",
"k  c #363202",
"l  c #373302",
"z  c #383302",
"x  c #393502",
"c  c #3E3902",
"v  c #3F3A02",
"b  c #403B02",
"n  c #433D03",
"m  c #433E02",
"M  c #443F02",
"N  c #464002",
"B  c #474102",
"V  c #484202",
"C  c #504A03",
"Z  c #534C02",
"A  c #544D02",
"S  c #544E02",
"D  c #554E02",
"F  c #585002",
"G  c #585102",
"H  c #595102",
"J  c #595103",
"K  c #5A5102",
"L  c #595202",
"P  c #5B5402",
"I  c #5C5502",
"U  c #5D5602",
"Y  c #5E5602",
"T  c #605802",
"R  c #605803",
"E  c #625902",
"W  c #615A03",
"Q  c #655D02",
"!  c #666003",
"~  c #696002",
"^  c #6A6103",
"/  c #6B6302",
"(  c #6D6502",
")  c #6F6602",
"_  c #766D02",
"`  c #776D02",
"'  c #7A7102",
"]  c #817602",
"[  c #827702",
"{  c #827703",
"}  c #837902",
"|  c #847803",
" . c #857A02",
".. c #867A03",
"X. c #877C02",
"o. c #877D02",
"O. c #887D02",
"+. c #897E02",
"@. c #908302",
"#. c #928702",
"$. c #948703",
"%. c #918903",
"&. c #988B02",
"*. c #998B02",
"=. c #998C02",
"-. c #998D02",
";. c #9A8C02",
":. c #9A8D02",
">. c #9B8E02",
",. c #9A8F03",
"<. c #9C8E02",
"1. c #A19502",
"2. c #A49702",
"3. c #A69902",
"4. c #AA9D02",
"5. c #AD9E02",
"6. c #AFA002",
"7. c #B0A202",
"8. c #B1A202",
"9. c #B6A602",
"0. c #B6A802",
"q. c #B9AB02",
"w. c #BAAA02",
"e. c #BDAC02",
"r. c #BDAE02",
"t. c #C4B202",
"y. c #C4B602",
"u. c #C5B602",
"i. c #C6B702",
"p. c #CEBF02",
"a. c #D2BF02",
"s. c #D3C002",
"d. c #D3C102",
"f. c #D2C302",
"g. c #D4C202",
"h. c #D5C202",
"j. c #D4C302",
"k. c #D6C302",
"l. c #D2C501",
"z. c #DAC702",
"x. c #D3C902",
"c. c #DAC902",
"v. c #DBC902",
"b. c #DCCA02",
"n. c #DECE02",
"m. c #E0CF01",
"M. c #E0CC02",
"N. c #E3D201",
"B. c #E7D301",
"V. c #E5D401",
"C. c #E8D402",
"Z. c #E5DA02",
"A. c #E9D901",
"S. c #EBDA01",
"D. c #EED901",
"F. c #EEDC01",
"G. c #EEDD01",
"H. c #F0DF01",
"J. c #F2DE01",
"K. c #F4DE01",
"L. c #F4DF01",
"P. c #EBE002",
"I. c #EFE301",
"U. c #F0E001",
"Y. c #F1E001",
"T. c #F2E201",
"R. c #F4E101",
"E. c #F5E201",
"W. c #F4E301",
"Q. c #F5E301",
"!. c #F6E201",
"~. c #F4E501",
"^. c #F8E301",
"/. c #F8E401",
"(. c #FBE601",
"). c #FCE601",
"_. c #FBEB01",
"`. c #FDE801",
"'. c #FDE901",
"]. c #FFE800",
"[. c #FFE900",
"{. c #FEE801",
"}. c #FFEA00",
"|. c #FFEB00",
" X c #FEEA01",
".X c #FFEA01",
"XX c #FEEB01",
"oX c #FFEB01",
"OX c #FCED01",
"+X c #FDED01",
"@X c #FFEC00",
"#X c #FFED00",
"$X c #FFEC01",
"%X c #FFED01",
"&X c #FFEE00",
"*X c #FFEF00",
"=X c #FFEE01",
"-X c #FEEF01",
";X c #FFEF01",
":X c #F9F001",
">X c #FAF001",
",X c #FDF101",
"<X c #FFF000",
"1X c #FFF100",
"2X c #FEF001",
"3X c #FFF101",
"4X c #FDF301",
"5X c #FFF200",
"6X c #FFF300",
"7X c #FFF201",
"8X c #FFF301",
"9X c #FFF400",
"0X c #FFF500",
"qX c #FFF401",
"wX c #FFF501",
"eX c #FCF701",
"rX c #FDF701",
"tX c #FFF600",
"yX c #FFF700",
"uX c #FFF601",
"iX c #FEF701",
"pX c #FFF701",
"aX c #FFF800",
"sX c #FFF900",
"dX c #FEF801",
"fX c #FFF801",
"gX c #FEF901",
"hX c #FFF901",
"jX c #FFFA00",
"kX c #FFFB00",
"lX c #FFFA01",
"zX c #FFFB01",
"xX c #FFFC00",
"cX c #FFFD00",
"vX c #FFFC01",
"bX c #FFFD01",
"nX c #FFFE01",
/* pixels */
"                                                                                                    ",
"                                                                X X X X X % X X                     ",
"                                                X X X X X * 5 r f M I ` #.| 1                       ",
"                                    X X % > q d c S ( o.1.0.p.N.F.^.XXXXXX) X                       ",
"                                  X > ] 7.i.c.A.~.+X1X9XfX9XfX9X9X9X+X+Xt.8                         ",
"                                  X p C.1X9X9XfXfXfXbXbXbXbXbXbXfX9X1XE.S X                         ",
"                                  X b E.1XfXfXbXbXbXbXbXbXbXbXbXfX9X1X6.>                           ",
"                                  X T +X9XbXbXbXbXbXbXbXbXbXbXbXfX9XG.N                             ",
"                                  X } 9XfXbXbXbXbXbXbXbXbXbXbXbXfX1X&.%                             ",
"                                  + 3.9XbXbXbXbXbXbXbXbXbXbXbXbX9XN.l                               ",
"                                  > y.9XfXbXbXbXbXbXbXbXbXbXbXfX1X..                                ",
"                                  e n.fXbXbXbXbXbXbXbXbXbXbXbXfXs.p                                 ",
"                                X l U.fXbXbXbXbXbXbXbXbXbXbXbXfX%.N / L %                           ",
"                                X S OX9XbXbXbXbXbXbXbXbXbXbXbXfXI.E.E.T X                           ",
"                                X _ 1XfXbXbXbXbXbXbXbXbXbXbXbXfX9X1Xe.6                             ",
"                                X ,.1X9XbXbXbXbXbXbXbXbXbXbXbXbX1XE.S                               ",
"                                * w.1X1XfXbXbXbXbXbXbXbXbXbXbXfX9X7.>                               ",
"                                w c.XXU.Z.fXbXbXbXbXbXbXbXbXbX9XU.V                                 ",
"                                w ] Q x ! :XbXbXbXbXbXbXbXbXfX9X3.*                                 ",
"                                X X   X ' 9XbXbXbXbXbXbXbXbX9XA.c                                   ",
"                                      % 4.9XbXbXbXbXbXbXbXfX9X&.&                                   ",
"                                      8 l.9XbXbXbXbXbXbXbX9XV.l                                     ",
"                                      l G.9XbXbXbXbXbXbXbX9XO.X   * % X                             ",
"                                    X I OXfXbXbXbXbXbXbXfXP.T I o.] 3 X                             ",
"                                    X +.9XfXbXbXbXbXbXbXbX:X~.XX^.I X                               ",
"                                    * 0.9XfXbXbXbXbXbXbXbX9X+XXX<.&                                 ",
"                                    e c.1XfXbXbXbXbXbXbXbX9X1Xj.p X                                 ",
"                                    c J.1X9XfXbXbXbXbXbXfX9XE.L X                                   ",
"                                  X ^ ).B.y.x.fXbXbXbXbX9X1X,.&                                     ",
"                                  X n U h 7 ,.9XfXbXbX9X9Xl.p X                                     ",
"                                  X X     7 r.9XfXfXfX9XE.L X                                       ",
"                                          d b.9X9X9X1X+X,.*                                         ",
"                                          V J.+X1X1X1Xj.p                                           ",
"                                          Q XX+X1X+XE.L X                                           ",
"                                          @.+XXXXXXX*.&                                             ",
"                                        3 9.+XXXXXs.p                                               ",
"                                        t k.XXXXK.L X                                               ",
"                                        b D.).XX,.&                                                 ",
"                                        E ).XXa.p                                                   ",
"                                        ..XXK.J X                                                   ",
"                                      * 5.+X&.&                                                     ",
"                                      w a.k.d                                                       ",
"                                      l M.K X                                                       ",
"                                      P $.*                                                         ",
"                                      C d                                                           ",
"                                    X 7                                                             ",
"                                    X X                                                             ",
"                                    X                                                               ",
"                                                                                                    ",
"                                                                                                    "
};
