/* XPM */
static char *Y2hhcmFjdGVy[] = {
/* columns rows colors chars-per-pixel */
"50 50 220 2 ",
"   c #171003",
".  c #0E0B08",
"X  c #281608",
"o  c #39150D",
"O  c #2D1410",
"+  c #2E2906",
"@  c #372B03",
"#  c #392928",
"$  c #323233",
"%  c #3B3B3D",
"&  c #393031",
"*  c #222A32",
"=  c #0A263A",
"-  c #44170D",
";  c #4B1B17",
":  c #551A15",
">  c #651D17",
",  c #771F1A",
"<  c #42211E",
"1  c #4A270D",
"2  c #6B241B",
"3  c #73211B",
"4  c #7A221C",
"5  c #743C1C",
"6  c #492A29",
"7  c #592925",
"8  c #473939",
"9  c #593836",
"0  c #52302F",
"q  c #682824",
"w  c #772A24",
"e  c #7D312B",
"r  c #693935",
"t  c #763732",
"y  c #60302C",
"u  c #594F00",
"i  c #7C5613",
"p  c #6D4E0C",
"a  c #7B6805",
"s  c #726A18",
"d  c #56473D",
"f  c #69413E",
"g  c #6E532F",
"h  c #786B2D",
"j  c #0F324A",
"k  c #1E4662",
"l  c #3D5566",
"z  c #434445",
"x  c #4B4B4B",
"c  c #484546",
"v  c #57494A",
"b  c #4F4F50",
"n  c #544E52",
"m  c #545253",
"M  c #5B5C5D",
"N  c #5A5657",
"B  c #4F5052",
"V  c #664847",
"C  c #784947",
"Z  c #635857",
"A  c #7D5C5A",
"S  c #7D5558",
"D  c #646147",
"F  c #5D5B61",
"G  c #7E5961",
"H  c #636263",
"J  c #6C6A6A",
"K  c #767677",
"L  c #737070",
"P  c #83251D",
"I  c #8C251E",
"U  c #96291E",
"Y  c #822B25",
"T  c #932B23",
"R  c #9B2B22",
"E  c #89332C",
"W  c #94342C",
"Q  c #9F3026",
"!  c #8D3933",
"~  c #993B35",
"^  c #A42D24",
"/  c #AB2E24",
"(  c #B32E25",
")  c #B92F26",
"_  c #AC3026",
"`  c #A2352D",
"'  c #AB342B",
"]  c #AF3C2D",
"[  c #B43127",
"{  c #BA3127",
"}  c #B3342C",
"|  c #BC3429",
" . c #B83B2A",
".. c #A73934",
"X. c #B33B33",
"o. c #BD3A31",
"O. c #BA3731",
"+. c #C3352A",
"@. c #CB362B",
"#. c #CE392D",
"$. c #C33428",
"%. c #D3362B",
"&. c #D4392E",
"*. c #D93A2F",
"=. c #D9372C",
"-. c #C33A31",
";. c #CB3B32",
":. c #D43B30",
">. c #D93B30",
",. c #E03B30",
"<. c #8E5913",
"1. c #857804",
"2. c #8E6A14",
"3. c #926F13",
"4. c #A5781A",
"5. c #A3790B",
"6. c #854239",
"7. c #98423C",
"8. c #A7423B",
"9. c #B54A2E",
"0. c #B27F25",
"q. c #C14428",
"w. c #C66C24",
"e. c #884642",
"r. c #964B46",
"t. c #88554C",
"y. c #985855",
"u. c #8C5757",
"i. c #AC4943",
"p. c #A65954",
"a. c #AD514C",
"s. c #96615D",
"d. c #947F59",
"f. c #AB635D",
"g. c #8B6467",
"h. c #936768",
"j. c #8C6B77",
"k. c #976972",
"l. c #887B7B",
"z. c #9C7876",
"x. c #A76A66",
"c. c #A47C79",
"v. c #AE716C",
"b. c #AA9B01",
"n. c #B6990A",
"m. c #BC8A1C",
"M. c #AC8D0C",
"N. c #B9A007",
"B. c #9B890C",
"V. c #C6911F",
"C. c #CAB602",
"Z. c #D2BC04",
"A. c #C9A50F",
"S. c #D28424",
"D. c #CB9121",
"F. c #CE9820",
"G. c #D49921",
"H. c #D69A24",
"J. c #C58822",
"K. c #DCA220",
"L. c #EAAB27",
"P. c #F2AE26",
"I. c #F8B326",
"U. c #D9C700",
"Y. c #EBD601",
"T. c #F3DC02",
"R. c #E1CD00",
"E. c #958970",
"W. c #B0827F",
"Q. c #A98A47",
"!. c #265E83",
"~. c #34698E",
"^. c #2C72A2",
"/. c #3377A5",
"(. c #7F7F80",
"). c #457EA3",
"_. c #867A89",
"`. c #927580",
"'. c #648295",
"]. c #7B8391",
"[. c #5C8EB1",
"{. c #759DB7",
"}. c #6F91A8",
"|. c #7DA5BF",
" X c #7EB0CF",
".X c #898889",
"XX c #888A97",
"oX c #99999A",
"OX c #989286",
"+X c #A98C89",
"@X c #B38A86",
"#X c #A39B9A",
"$X c #B59D9B",
"%X c #849CAE",
"&X c #9DA3A8",
"*X c #8FACBE",
"=X c #AEAAAA",
"-X c #BAA2A1",
";X c #B7B9B9",
":X c #C89B97",
">X c #C7B5B4",
",X c #87BDDE",
"<X c #83B2D1",
"1X c #90B0C7",
"2X c #A9BCC9",
"3X c #88BFE1",
"4X c #B5C6D3",
"5X c #89C1E3",
"6X c #C9C4C3",
"7X c #CACBCC",
"8X c #D7D8D8",
"9X c #C9CED4",
"0X c #D6DDE1",
"qX c #DEE2E3",
"wX c #E6E8E8",
"eX c #EFF1F2",
"rX c #F4F5F5",
"tX c #FEFEFE",
"yX c #F7F9F9",
"uX c None",
/* pixels */
"uXuXuXuXuXuXuXuXuXuXuXuXuXuXuXuXuXuXuXuXuXuXuXuXuXuXuXuXuXuXuXuXuXuXuXuXuXuXuXuXuXuXuXuXuXuXuXuXuXuX",
"uXuXuXuXuXuXuXuXuXuXuXuXuXuXuXuXuXuXuXuXuXuXuXuXuXuXuXuXuXuXuXuXuXuXuXuXuXuXuXuXuXuXuXuXuXuXuXuXuXuX",
"uXuXuXuXuXuXuXuXuXuXuXuXuXuXuXuXuXuXuXuXuXuXuXuXuXuXuXuXuXuXuXuXuXuXuXuXuXuXuXuXuXuXuXuXuXuXuXuXuXuX",
"uXuXuXuXuXuXuXuXuXuXuXuXuXuXuXuXuXuXuXuXuXuXuXuXuXuXuXuXuXuXuXuXuXuXuXuXuXuXuXuXuXuXuXuXuXuXuXuXuXuX",
"uXuXuXuXuXuXuXuXuXuXuXuXuXuXuXuXuXuXuXuXuXuXuXuXuXuXuXuXuXuXuXuXuXuXuXuXuXuXuXuXuXuXuXuXuXuXuXuXuXuX",
"uXuXuXuXuXuXuXuXuXuXuXuXuXuXuXuXuXuXuXuXuXuXuXuXuXuXuXuXuXuXuXuXuXuXuXuXuXuXuXuXuXuXuXuXuXv f 9 uXuX",
"uXuXuXuXuXuXuXuXuXuXuXuXuXuXuXuXuXuXuXuXuXuXuXuXuXx v f r t e e Y Y Y w r x uXuXuXuXuXV ~ $.=.` uXuX",
"uXuXuXuXuXuXuXuXuXuXuXuXuXuXuXuXuXuXuXuXuXuXV t T ( $.@.@.@.@.$.#.*.>.,.=.) w w _ } | %.*.*.*.' uXuX",
"uXuXuXuXuXuXuXuXuXuXuXuXuXuXuXuXuXuXuXuXr P ^ / ( _ ^ I 4 3 , , , , 4 R %.i.S r ^ >.>.:.*.*.*.' uXuX",
"uXuXuXuXuXuXuXuXuXuXuXuXuXuXuXuXuXuXuX6 : > , Y I T ^ | @.&.*.*.&.#.| R ^ XX X}.n ^ >.=.>.*.,.] uXuX",
"uXuXuXuXuXuXuXuXuXuXuXuXuXuXuXuXuXuXC I $.%.>.>.>.>.>.>.:.=.*.*.>.>.>.%.^ XX3X[.'.F [ #.| / $.[ H uX",
"uXuXuXuXuXuXuXuXuXuXuXuXuXuXuXuXuXg.+.>.=.&.>.>.*.*.>.*.*.=.=.=.=.>.>.>./ _.5X|.}.{.6 > X a 5.U Z uX",
"uXuXuXuXuXuXuXuXuXuXuXuXuXuXuXuXJ ] >.>.=.=.>.>.=.=.&.9.i.p.f.f.p.i.X.| ^ _.3X X'.(.e.R @ R.Y.3.g uX",
"uXuXuXuXuXuXuXuXuXuXuXuXuXuXuXuXy.*.%.@.O.X...~ 8.a.@X>XwXeX4X*XqXwX6X-Xr.j.3X,X{.j.=., a T.T.N.B.uX",
"uXuXuXuXuXuXuXuXuXuXuXuXuXuXuXL ` i.v.$X>X%X~.~.2XeXyXtXtX0X'.^.2XtXtXtX:Xj.3X3X].-.&.: b.T.T.Y.Z.uX",
"uXuXuXuXuXuXuXuXuXuXuXuXuXuXuXl.$X8XyXtXtX[.* ~.2XtXtXtXtX1Xk l |.tXtXtX:Xg.3X<Xp.*.R - U.T.T.T.U.d ",
"uXuXuXuXuXuXuXuXuXuXuXuXuXuXL 7XtXtXtXtXrX[.= ~.9XyXtXtXtX<Xj j *XyXtXtX:Xg.3X_.>.>.: @ U.Y.T.T.C.uX",
"uXuXuXuXuXuXuXuXuXuXuXuXuXuXoXrXtXtXtXtXtX1X/.{.yXyXtXtXtX2X^./.9XtXyXwX+Xg.(.-.>.:.; u n.Z.T.R.u uX",
"uXuXuXuXL Z r t y f A l.#X=X;XtXtXtXtXeXwX8X&X;X7X6X6X6X7X7X%X2X8X#Xg.r.E Y w I { $.5 a G.A.T.C.+ uX",
"uXuXuXL q ) @._ [ @.@.{ ^ ! y.c.+Xc.x.y.r.i.i.` ` ' ' ' W 8.e.t.7.U @.>.%.y.h.$.R R i V.H.B.Y.b.  uX",
"uXuXH w &.=.[ #.>.>.>.@.&.>.&.#.@.@.#.=.=.*.>.*.,.q.*.*.*./ U ) [ &.>.=.i.{.`.&./ , 4.L.m.B.T.B.. uX",
"uXuXr @.>.| X.:.*.>.+.| >.>.=.>.>.>.>.=.:.=.*.>.,.*.*.@.T W @.[ &.>.>.=.k.<Xa.Q O : m.D.D.m.T.s * uX",
"uXZ U 9.#.[ 7.;.>.=.| &.>.>.>.>.>.>.>.>.>.>.>.:.,.>.+.^ ' W _ &.>.>.>.:.`._.;.r % : 3.3.G.K.Z.h % uX",
"uXf q.G.9.@.[ | :.#.$.:.>.>.>.>.>.>.>.>.>.>.>.>.>.#.^ _ [ | @.| O.;.>.;.u...' H n 2 4.m.G.K.n.D c uX",
"uXW w.I.E.f.q.+.{ | 9.>.>.>.=.>.>.>.>.*.>.>.>.>.#.^ [ $.X.p.t.J.D.9.=.;.O.=.! K m e G.L.s 3.p m H uX",
"uX' w.L.E.#Xy.q.| ' ~ +.+.+.+.| $.+.@.#.&.-.7.| _ @.o.y.K #XQ.I.S.@.=.>.&.&.C K v p m.D.1.3.O m H uX",
"d { 9.0.OX&X.Xr.*.+.[ | | +.+.+.+.| } [ _ / R | &.O.A .XoXOXH.I.w.%.>.>.>.o.V S V <.p 4.4.2.# n H uX",
"v @.=. .y.E.XXg.&.>.>.>.>.>.>.>.>.>.>.:.=.>.>.>.>.t.]..XoXE.H.F.q.&.>.:.>.` t X.V M.C.m.D.<.2 n M uX",
"V #.>.:.&.X.u.u.;.*.>.>.>.>.>.>.>.>.>.>.>.>.>.>.-.C r.r.8.]  . .>.>.>.>.=.E 7 o.d b.A.D.4.2 2 x M uX",
"t =.>.=.=.>.;.X.#.>.>.>.>.:.>.>.>.>.>.>.>.>.>.>.>.&.>.>.=.*.*.*.>.>.>.>.>.7 - o.g A.P.i o , w x J uX",
"e *.>.>.>.>.>.>.>.>.*.>.>.>.>.>.>.>.>.>.>.>.>.>.>.>.>.>.*.*.*.*.>.>.>.>.%.; > } h A.4.  : Y w m K uX",
"e *.:.>.>.=.>.>.+.*.>.:.>.>.>.>.>.>.>.:.>.>.#.^ @.>.>.,.q.*.*.*.>.>.>.>.-.; P ] g i X o w > t N .XuX",
"e *.=.>.>.>.#.P : Q *.*.*.*.=.=.=.:.>.>.*.%.T o > [ *.*.:.>.>.>.>.>.>.>.) : Y X.h a + : 6 ; e.F K uX",
"e *.>.>.>.:.@.| o.k.f.| %.*.*.=.=.@.| X.a.c.u.| +.[ >.*.>.>.>.>.>.>.>.>.^ ; T ` 3.1.o 6 % z V H K uX",
"r =.>.>.>.=.>.>.*.p.;X+Xy.6.6.t.s.z.-X6X8X=X8.*.>.>.*.>.>.>.>.>.>.>.>.>.T - ^ ~ s X : c $ x F K uXuX",
"9 #.>.>.>.>.>.>.*.] oX7X8XwXwXeXrXtXrX7X.XE *.*.>.*.>.:.>.>.>.>.>.>.*.>.w O } ! + o 7 z % B F .XuXuX",
"uX| >.>.>.>.>.>.>.&.v.8XrXtXtXtXtXtXwX$Xi.&.>.:.>.>.>.>.>.>.:.>.>.>.>.*.q ; +.9 O > v z % M M oXuXuX",
"uXE *.*.>.>.>.>.:.>.&.i.v.+X$X>X$XW.p.-.=.>.>.>.>.>.>.>.>.:.>.>.>.>.>.#.y P 9.0 > 3 v c B H M K uXuX",
"uX8 ) *.>.*.*.>.>.>.>.*.=.@.@.@.#.@.=.=.>.>.>.>.>.>.>.>.>.>.>.>.>.>.>.| 9 ' 8.0 > # $ $ $ uXuXuXuXuX",
"uXuX6 ) *.,.>.>.=.>.>.=.*.>.*.=.>.:.:.>.>.>.>.>.>.:.>.>.>.>.>.>.>.>.*.e N o.C # uXuXuXuXuXuXuXuXuXuX",
"uXuXuX# q ` +.=.>.>.>.>.*.*.>.>.>.>.>.:.:.>.>.>.>.>.>.*.>.>.>.>.>.>.[ 8 B V 8 uXuXuXuXuXuXuXuXuXuXuX",
"uXuXuXuXuXuX# 7 Y ^ $.=.*.>.>.>.>.>.=.>.:.*.>.=.=.>.*.*.>.>.>.>.*.^ 0 % z x uXuXuXuXuXuXuXuXuXuXuXuX",
"uXuXuXuXuXuXuXuXuXuX8 6 2 Y / $.%.=.>.>.>.>.>.*.>.>.,.*.=.@.[ T 7 # uXuXz B x uXuXuXuXuXuXuXuXuXuXuX",
"uXuXuXuXuXuXuXuXuXuXuXuXuXuXuXuXuX6 ; : 2 > 3 w w q q 0 7 # & $ uXuXuXc B x uXuXuXuXuXuXuXuXuXuXuXuX",
"uXuXuXuXuXuXuXuXuXuXuXuXuXuXuXuXuXuXuXuXuXuXuXuXuXuXuXuXuXuXuXuXuXuXz N m z uXuXuXuXuXuXuXuXuXuXuXuX",
"uXuXuXuXuXuXuXuXuXuXuXuXuXuXuXuXuXuXuXuXuXuXuXuXuXuXuXuXuXuXuXuXuXuXuXuXuXuXuXuXuXuXuXuXuXuXuXuXuXuX",
"uXuXuXuXuXuXuXuXuXuXuXuXuXuXuXuXuXuXuXuXuXuXuXuXuXuXuXuXuXuXuXuXuXuXuXuXuXuXuXuXuXuXuXuXuXuXuXuXuXuX",
"uXuXuXuXuXuXuXuXuXuXuXuXuXuXuXuXuXuXuXuXuXuXuXuXuXuXuXuXuXuXuXuXuXuXuXuXuXuXuXuXuXuXuXuXuXuXuXuXuXuX",
"uXuXuXuXuXuXuXuXuXuXuXuXuXuXuXuXuXuXuXuXuXuXuXuXuXuXuXuXuXuXuXuXuXuXuXuXuXuXuXuXuXuXuXuXuXuXuXuXuXuX",
"uXuXuXuXuXuXuXuXuXuXuXuXuXuXuXuXuXuXuXuXuXuXuXuXuXuXuXuXuXuXuXuXuXuXuXuXuXuXuXuXuXuXuXuXuXuXuXuXuXuX"
};
