/* XPM */
static char *result[] = {
/* columns rows colors chars-per-pixel */
"50 50 214 2 ",
"   c black",
".  c #1A1B1B",
"X  c #191817",
"o  c #081016",
"O  c #24211F",
"+  c #151C21",
"@  c #091B26",
"#  c #1A2228",
"$  c #0A2337",
"%  c #1A2935",
"&  c #2B2B2A",
"*  c #252322",
"=  c #34312E",
"-  c #232E37",
";  c #2E343A",
":  c #2D3134",
">  c #353433",
",  c #393634",
"<  c #3C3835",
"1  c #3D3C3C",
"2  c #33373A",
"3  c #312F2D",
"4  c #413E3D",
"5  c #42403F",
"6  c #062B46",
"7  c #1C3549",
"8  c #083456",
"9  c #1D3A55",
"0  c #173B58",
"q  c #0E2F49",
"w  c #2B3946",
"e  c #2B3D4D",
"r  c #243849",
"t  c #373E45",
"y  c #263D52",
"u  c #033D69",
"i  c #1F435F",
"p  c #3A434A",
"a  c #28435C",
"s  c #374856",
"d  c #2A414E",
"f  c #1D4A6C",
"g  c #1A496A",
"h  c #064777",
"j  c #164B75",
"k  c #09436F",
"l  c #214565",
"z  c #244A6C",
"x  c #2B4E6C",
"c  c #264866",
"v  c #2A516D",
"b  c #35536C",
"n  c #3C5266",
"m  c #224D73",
"M  c #2B5374",
"N  c #26547C",
"B  c #2B557A",
"V  c #3A4F61",
"C  c #444444",
"Z  c #4C4B4B",
"A  c #43474B",
"S  c #4A4E52",
"D  c #434C55",
"F  c #48535D",
"G  c #545454",
"H  c #5C5C5C",
"J  c #575757",
"K  c #52504F",
"L  c #605E5D",
"P  c #62605F",
"I  c #4B5A66",
"U  c #465765",
"Y  c #475F73",
"T  c #605F60",
"R  c #5C6269",
"E  c #46627C",
"W  c #49637B",
"Q  c #4F6273",
"!  c #576978",
"~  c #646464",
"^  c #6A6A6A",
"/  c #646669",
"(  c #676D73",
")  c #6C7074",
"_  c #737374",
"`  c #7D7C7D",
"'  c #75787C",
"]  c #706F6F",
"[  c #817F7F",
"{  c #034D84",
"}  c #024F88",
"|  c #02518C",
" . c #115489",
".. c #005393",
"X. c #015B9E",
"o. c #025897",
"O. c #295B86",
"+. c #275C89",
"@. c #2A5E8B",
"#. c #275781",
"$. c #315D84",
"%. c #2C618E",
"&. c #34628B",
"*. c #3D668A",
"=. c #3E6A8D",
"-. c #366386",
";. c #2D6493",
":. c #2D6798",
">. c #2E699C",
",. c #21659B",
"<. c #326694",
"1. c #316B9D",
"2. c #386C92",
"3. c #357296",
"4. c #267098",
"5. c #015CA0",
"6. c #0A62A5",
"7. c #0661A4",
"8. c #166AAD",
"9. c #1A6FB1",
"0. c #1D70B2",
"q. c #2F6FA5",
"w. c #316EA2",
"e. c #2C74A7",
"r. c #3371A6",
"t. c #3B74A4",
"y. c #3474AC",
"u. c #3A76AA",
"i. c #3A78AE",
"p. c #2C7ABB",
"a. c #2775B5",
"s. c #3577B0",
"d. c #3679B4",
"f. c #387BB6",
"g. c #337CBB",
"h. c #397EBB",
"j. c #496B89",
"k. c #546E84",
"l. c #5C768C",
"z. c #54718A",
"x. c #4A7796",
"c. c #537B9A",
"v. c #5B7B96",
"b. c #4B708F",
"n. c #687A8A",
"m. c #647F93",
"M. c #4379A5",
"N. c #507BA0",
"B. c #367FC0",
"V. c #817F80",
"C. c #3D81BD",
"Z. c #79848F",
"A. c #678196",
"S. c #7A8A99",
"D. c #5B86A3",
"F. c #5D94B2",
"G. c #648DA9",
"H. c #7199B3",
"J. c #3681C2",
"K. c #3D84C5",
"L. c #3D86C8",
"P. c #3F88CB",
"I. c #458BC9",
"U. c #4E92CD",
"Y. c #5799D1",
"T. c #858585",
"R. c #82868A",
"E. c #8C8B8B",
"W. c #86898B",
"Q. c #858C93",
"!. c #8E9195",
"~. c #8A939B",
"^. c #939393",
"/. c #95999C",
"(. c #9B9A9B",
"). c #908F8F",
"_. c #A1A09F",
"`. c #969DA4",
"'. c #8E9FAD",
"]. c #99A2A9",
"[. c #95A9B8",
"{. c #80A7BC",
"}. c #AAAAAA",
"|. c #A6A6A7",
" X c #B2B0AF",
".X c #A8AEB4",
"XX c #ABB1B7",
"oX c #B4B4B5",
"OX c #BDBBBB",
"+X c #B5B6B9",
"@X c #C1BEBE",
"#X c #95B5C7",
"$X c #BCBEC1",
"%X c #B5C8D5",
"&X c #BBC7CF",
"*X c #C4C2C2",
"=X c #C8C6C5",
"-X c #CDCBCB",
";X c #C5C8CB",
":X c #DDDCDC",
">X c #D7D7D8",
",X c #CCCED0",
"<X c #E1DFDE",
"1X c #E1E0DF",
"2X c #D5DEE3",
"3X c #D9E2E8",
"4X c #EBEAE9",
"5X c #E6E5E4",
"6X c #F1EFEE",
"7X c #F4F3F3",
"8X c #FEFEFE",
"9X c #F8F6F5",
"0X c #F1F0F0",
"qX c None",
/* pixels */
"qXqXqXqXqXqXqXqXqXqXqXqXqXqXqXqXqXqXqXqXqXqXqXqXqXqXqXqXqXqXqXqXqXqXqXqXqXqXqXqXqXqXqXqXqXqXqXqXqXqX",
"qXqXqXqXqXqXqXqXqXqXqXqXqXqXqXqXqXqXqXqXqXJ H T H qXqXqXqXqXqXqXqXqXqXqXqXqXqXqXqXqXqXqXqXqXqXqXqXqX",
"qXqXqXqXqXqXqXqXqXqXqXqXqXqXqXT F p e a l z N M m c c F R T._ qXqXqXqXqXqXqXqXqXqXqXqXqXqXqXqXqXqXqX",
"qXqXqXqXqXqXqXqXqXqXqXqXqX~ D 7 m y.y.y.w.w.:.;.%.<.<.;.+.M U (.qXqXqXqXqXqXqXqXqXqXqXqXqXqXqXqXqXqX",
"qXqXqXqXqXqXqXqXqXqXqXqXD l r.#.N #.#.O.;.;.:.;.;.;.@.O.#.N z y ^.qXqXqXqXqXqXqXqXqXqXqXqXqXqXqXqXqX",
"qXqXqXqXqXqXqXqXqXqX^ y M m.c.g w.J.L.K.L.L.L.L.L.L.L.L.L.J.g.:.Y _ qXqXqXqXqXqXqXqXqXqXqXqXqXqXqXqX",
"qXqXqXqXqXqXqXqXqX_ y n.Q.$Xk.@.I.L.L.K.L.K.L.K.L.K.K.K.K.L.L.P.w.Q.qXqXqXqXqXqXqXqXqXqXqXqXqXqXqXqX",
"qXqXqXqXqXqXqXqX_ e `.[.$X$XM ;.@.m l c z $.<.r.B.K.K.K.f.q.>.q.d.z.qXqXqXqXqXqXqXqXqXqXqXqXqXqXqXqX",
"qXqXqXqXqXqXqXqXp ].,X].4X[.9 & K ` _.W.n Q.}.Q.l.*.=.b U ) R F w % ` qXqXqXqXqXqXqXqXqXqXqXqXqXqXqX",
"qXqXqXqXqXqXqXU Z.:X`.=X:Xv.n.:X9X8X6XG.e.G.9X8X7X:XoXj.c.5X8X7X:X|.T.qXqXqXqXqXqXqXqXqXqXqXqXqXqXqX",
"qXqXqXqXqXqXR n >X$X/.:X$X=.XX8X8X8X2X3.s D.6X8X8X8X[.3.3.&X8X8X8X8X-X^ qXqXqXqXqXqXqXqXqXqXqXqXqXqX",
"qXqXqXqXqXqXx U  XQ.n.H.m.&.&X8X8X8X3XB @ D.7X8X8X8X{.d v %X8X8X8X8X7XT.qXA.G.D.XXqXqXqXqXqXqXqXqXqX",
"qXqXqXqXqXF a.w.x M.U.Y.t.&.-X8X8X8X0XF.4.#X8X8X8X8X#Xj 3.2X8X8X8X8X8X}.! I.I.h.'.qXqXqXqXqXqXqXqXqX",
"qXqXqXqXs w.P.B.f.;.w.y.h.B oX8X8X8X8X2X%X0X8X8X8X8X3XF.#X7X8X8X8X8X8X:Xk.g.t.n.}.qXqXqXqXqXqXqXqXqX",
"qXqXqXA M.Y.U.F.K.f.r.w.h.O.b.].;X:X4X6X7X7X7X7X7X0X4X5X5X4X4X4X4X4X6X6X!.n.`.oXT.qXqXqXqXqXqXqXqXqX",
"qXqXS 2.U.I.d.i.K.K.B.r.1.N w.O.B j.x.c.D.A.v.l.l.z.k.k.W E E E W W Q Q U w t S ' oX(.qXqXqXqXqXqXqX",
"qXqXb I.K.K.y.K.K.K.r.B.y.#.f.B.w.O.O.>.;.:.,.@.;.+.%.@.@.@.@.@.@.@.O.%.g.d.s.:.m 9 A /.qXqXqXqXqXqX",
"qXG >.B.K.K.y.K.K.C.r.C.w.<.y.K.L.J.w.z 9 y.d.d.f.f.f.h.h.h.h.h.B.C.C.s.<.B.K.K.L.B.>.y T [ qXqXqXqX",
"qXI w.7 <.K.y.B.K.K.r.>.M.s.>.K.K.K.L.J.#.z h.L.K.K.K.K.K.K.I.B.K.K.K.K.d.;.C.K.K.K.L.B.#.F ' qXqXqX",
"qXb c = y B.u.K.K.K.K.B.K.g.%.K.K.K.K.L.K.O.m B.K.K.K.K.K.K.B.I.K.K.K.K.K.d.<.K.K.K.K.r.u.O.( qXqXqX",
"qXx a L p r.y.B.K.K.K.K.L.B.%.K.K.K.K.K.j.Z.V m K.K.K.K.K.K.K.K.K.K.K.K.K.K.r.r.K.K.M.V.].N.x (.qXqX",
"qXm r , > $.y.h.K.K.%.z B.M.%.K.C.K.K.i./.*X+Xt O.K.K.K.I.B.K.K.K.K.K.K.K.K.K.<.h.L.N.@X*XoX*.k.qXqX",
"qXg r H = M s.h.B.r.o   q r.%.K.K.K.K.u.].@X,X(.x w.K.K.K.B.K.K.K.K.K.K.K.K.K.B.:.s.l.@XOX-Xm.*.!.qX",
"qXx w ^ , y s.h.I.#.X J : z w.L.K.K.K.u.!.*X*X=XW.U s.L.K.I.B.I.L.L.L.K.K.K.K.L.<.( |.+X@X=XoX<.~.qX",
"qXQ w E.G w y.i.L.#.Z / T - :.K.K.K.K.h.n.@X@X-XOX|.Y s.r.w.;.@.O.O.@.O.%.@.@.O.#.R ^.|.*X$XOXj.n.qX",
"qX_ t [ ~ w y.s.L.$.3 > C & @.K.K.K.K.K.k.}.@X=X$XV.U M O.%.>.w.w.r.y.s.d.s.i.w.w.1.$.Y ^.*X*Xj.k.qX",
"qXqXG / C ; r.s.P.c 1 V.^ & i w.r.s.s.y.O.) @X=X}.$.B.K.B.I.K.K.P.K.L.K.K.K.K.P.L.L.L.B.-.R.!.M.v.qX",
"qXqXJ T J ; r.y.B.r P J _ > c s.w.;.%.w.s.$.n.(.l.f.K.K.L.K.B.K.K.K.K.K.K.K.K.K.K.K.K.K.K.<.%.B.W qX",
"qXqXH ^ ] ; w.y.B.w V.C ~ 4 y K.K.K.K.K.K.K.w.$.y.K.K.K.L.K.K.L.L.B.L.K.B.I.I.B.K.K.K.K.K.K.L.K.y qX",
"qXqX/ _ ^ :  .,.y.t ).H ] 4 7 d.K.K.K.K.K.K.K.K.K.K.K.K.K.K.h.w.d.B.L.L.I.B.B.K.K.K.K.K.K.K.K.y.% qX",
"qXqX_ ~ J 3 h | j A (.E.V.Z # ,.K.K.K.K.K.K.K.K.K.K.K.K.K.y.7 o 0 I.K.K.B.L.f.#.s.I.I.B.K.K.K. .+ qX",
"qXqX).Z H > k X.u 2 _ ~ [ ~ &  .B.K.K.K.K.K.K.K.K.K.K.K.K.h.y.@.y f.L.L.L.L.;.z >.B.I.B.L.J.9.8 O qX",
"qXqX}.> = C r } { 2 E.Z T E.< 0 9.K.K.K.K.K.K.K.K.K.K.K.K.K.K.L.w.z O.w.w.O.%.K.K.K.K.K.B.0.| % qXqX",
"qXqX(.1 & G , # $ ; ` G E.T.p 7 o.p.K.K.K.K.K.K.K.K.I.K.K.K.K.K.K.h.:.O.;.s.B.K.K.K.I.B.8.5.8 O qXqX",
"qXqXqX` , G , = * > ` [ E.] Z ; { 5.p.K.K.K.K.K.K.K.B.K.K.K.K.K.K.K.K.L.B.I.K.K.K.B.a.5.5.k + qXqXqX",
"qXqXqX' [ ~ P ' E.C ^ ' ^.^ K 1 8 X.5.0.B.K.K.K.I.B.I.K.K.K.K.K.I.K.K.K.I.K.B.B.0.6.5.5.h + qXqXqXqX",
"qXqXqXqXqXqXqXqXqXH _ _ _ ] K 5 # | 5.X.5.8.a.a.a.p.g.p.g.g.g.p.a.a.a.0.9.8.5.5.X.X.X.u + qXqXqXqXqX",
"qXqXqXqXqXqXqXqXqX_ ~ E._ H J 5 * 6 X.X.X.o.X.X.X.5.5.5.5.5.5.X.5.5.X.X.X.o.5.5.X.{ 6 # qXqXqXqXqXqX",
"qXqXqXqXqXqXqXqXqXW.1 T.` 5 H 4 , . 8 o.5.5.X.X.X.5.5.5.5.X.X.X.5.5.5.5.5.X...h q @ & qXqXqXqXqXqXqX",
"qXqXqXqXqXqXqXqXqXqX1 C C 5 H < < , . $ k } ..o...............} { h { k f b Q 2 X qXqXqXqXqXqXqXqXqX",
"qXqXqXqXqXqXqXqXqXqX` * = L Z < < , & G ^ R I I I I F U U F F D C qXqXqXqXqXqXqXqXqXqXqXqXqXqXqXqXqX",
"qXqXqXqXqXqXqXqXqXqXqX^ A Z & = , Z ~ qXqXqXqXqXqXqXqXqXqXqXqXqXqXqXqXqXqXqXqXqXqXqXqXqXqXqXqXqXqXqX",
"qXqXqXqXqXqXqXqXqXqXqXqX_ ` [ ` ^ qXqXqXqXqXqXqXqXqXqXqXqXqXqXqXqXqXqXqXqXqXqXqXqXqXqXqXqXqXqXqXqXqX",
"qXqXqXqXqXqXqXqXqXqXqXqXqXqXqXqXqXqXqXqXqXqXqXqXqXqXqXqXqXqXqXqXqXqXqXqXqXqXqXqXqXqXqXqXqXqXqXqXqXqX",
"qXqXqXqXqXqXqXqXqXqXqXqXqXqXqXqXqXqXqXqXqXqXqXqXqXqXqXqXqXqXqXqXqXqXqXqXqXqXqXqXqXqXqXqXqXqXqXqXqXqX",
"qXqXqXqXqXqXqXqXqXqXqXqXqXqXqXqXqXqXqXqXqXqXqXqXqXqXqXqXqXqXqXqXqXqXqXqXqXqXqXqXqXqXqXqXqXqXqXqXqXqX",
"qXqXqXqXqXqXqXqXqXqXqXqXqXqXqXqXqXqXqXqXqXqXqXqXqXqXqXqXqXqXqXqXqXqXqXqXqXqXqXqXqXqXqXqXqXqXqXqXqXqX",
"qXqXqXqXqXqXqXqXqXqXqXqXqXqXqXqXqXqXqXqXqXqXqXqXqXqXqXqXqXqXqXqXqXqXqXqXqXqXqXqXqXqXqXqXqXqXqXqXqXqX",
"qXqXqXqXqXqXqXqXqXqXqXqXqXqXqXqXqXqXqXqXqXqXqXqXqXqXqXqXqXqXqXqXqXqXqXqXqXqXqXqXqXqXqXqXqXqXqXqXqXqX",
"qXqXqXqXqXqXqXqXqXqXqXqXqXqXqXqXqXqXqXqXqXqXqXqXqXqXqXqXqXqXqXqXqXqXqXqXqXqXqXqXqXqXqXqXqXqXqXqXqXqX"
};
