/* XPM */
static char *_2128f6a369846b584b7a4d8662e7947o72GKOFg2ujngAUn[] = {
/* columns rows colors chars-per-pixel */
"50 50 75 1 ",
"  c #CD040A",
". c #C8080D",
"X c #D50606",
"o c #DC0505",
"O c #D80805",
"+ c #D40609",
"@ c #DD0409",
"# c #D30909",
"$ c #CE0710",
"% c #CE1D1E",
"& c #DE1719",
"* c #D4191C",
"= c #DC1A1A",
"- c #E30305",
"; c #EB0102",
": c #E3030A",
"> c #F40201",
", c #FC0001",
"< c #E01719",
"1 c #E0191A",
"2 c #DB201E",
"3 c #DB1B20",
"4 c #CF2126",
"5 c #CE2C2E",
"6 c #D32122",
"7 c #D12B2F",
"8 c #C72E35",
"9 c #CE2C31",
"0 c #D12C31",
"q c #C93032",
"w c #CA4248",
"e c #DD4E4E",
"r c #D5514E",
"t c #DE4E50",
"y c #CC5354",
"u c #D25456",
"i c #DB5253",
"p c #DF5459",
"a c #DA585C",
"s c #E04E51",
"d c #D8615D",
"f c #DF6565",
"g c #D76A6B",
"h c #DB7170",
"j c #D77E7D",
"k c #DA7D7C",
"l c #E36465",
"z c #E56768",
"x c #E47B77",
"c c #E87A77",
"v c #E47778",
"b c #E37B7A",
"n c #E87B79",
"m c #E5827F",
"M c #DA7D82",
"N c #DA8083",
"B c #EFACAB",
"V c #F5ABA7",
"C c #F3AEAB",
"Z c #F2B1AD",
"A c #F0AEB1",
"S c #F3BBB1",
"D c #F4CAC6",
"F c #F5CACA",
"G c #FDD2CE",
"H c #F5D4D2",
"J c #FCDFDE",
"K c #FCE2DE",
"L c #FCE4E2",
"P c #FCF5EE",
"I c #FEF6F3",
"U c #FDF9F5",
"Y c #FCF7F9",
"T c #F6FEFC",
"R c #FDFDFC",
/* pixels */
";,>>>>>,>>>>>>>-pKRRRRRRYRRURRRRPb:,>>>>>,,>>,,>>>",
">,,,>,,>,,,,,,,-eKRRURURYRRRTYUTIc-,>,,,,,,,,,>>>>",
">>>,,,,,,,,,,,,;eKTYRRRRRRRRRTTRUn->>>,,,,,,>,>,>>",
">,,,,,,,,,,,,,,-eKRRRTRRRRRRTYRRUm-,,,,,,,,,,,,,,>",
">,,,,,,,,,,,,,,;eKRUTRRRRRRRRRYRIn-,,,,,,,,,,,,,>>",
">,,,,,,,,,,,,,,;eKRRRRRRRRRRRRRRIn-,,,,,,,,,,,,,,>",
">,,,,,,,,,,,,,,;eKRRRRRRRRRRTRRRUc-,,,,,,,,,,,,,>>",
">>,,,,,,,,,,,,,;eKRRURURRRRRRRRRUn-,,,,,,,,,,,,,,>",
">,,,,,,,,,,,,,,;eKRURRRRRRRRRRRRIc;,,,,,,,,,,,,,,>",
",>,,,,,,,,,,,,,;tLRUURRRRRRRRRRRIc-,,,,,,,,,,,,,,>",
">>>,,,,,,,,,,,,;tLRRRURRRRRRRRRRUn-,,,,,,,,,,,,,,>",
">,,,,,,,,,,,,,,;sJTTUURRRRRRRRRRUn->,,,,,,,,,,,,,>",
",>,,,,,,,,,,,,,;tLRYRRRRRRRRRRRRIv-,,,,,,,,,,,,,>>",
">,,,,,,,,,,,,,,;eJRTTTURRRRRRRRRUv->,,,,,,,,,,,,>>",
">,>>,>,,,,>,,,>;rKRRRRRRRRRRRRRTIc->>,>>>>,>>>,>>,",
"6632=&&&11&&&&&*rSDFFFFFFFFFFFFFDh%&&&&<1&===*==71",
"ZACVCCACZCZZCVZCd%*64636223623663uBBCCVCVCZCZCCCCV",
"TRYRRRRRRRRRRRRUmX>>;>>>,,>>,>>,;lPTRRRRRRRRRRRRRR",
"TTRRRRRRYRUURURUk@,>>,,,,,,,,,,,;fIYYRRRRRYRRYTYTY",
"YRRRRRRRRRRRRRRUb:,,,,,,,,,,,,,,-fIRTYRRRRRRRRYRTY",
"RRRRRRRRRRRRRRRRb-,,,,,,,,,,,,,,;lIRRRRRRRRRRRRRYR",
"RRRRRRRRRRRRRRRYb->,,,,,,,,,,,,,;lIRRRRRRRRRRRRRTY",
"RRRRRRRRRRRRRRRRb-,,,,,,,,,,,,,,;zURRRRRRRRRRRRRRR",
"RRRRRRRRRRRRRRRRk->,,,,,,,,,,,,,;lIRRRRRRRRRRRRRUR",
"RRRRRRRRRRRRRRRYM:>,,,,,,,,,,,,,-lIRRRRRRRRRRRRRRU",
"RRRRRRRRRRRRRRRYM&,,,,,,,,,,,,,,;lIRRRRRRRRRRRRYUR",
"RRRRRRRRRRRRRRRRn:,,,,,,,,,,,,,,;lIRRRRRRRRRRRRTRR",
"RRRRRRRRRRRRRRRYv:,,,,,,,,,,,,,,;lIRRRRRRRRRRRRRUR",
"RRRRRRRRRRRRRRRUc-,,,,,,,,,,,,,,;lPRRRRRRRRRRRRTUR",
"RRTRRRRRRRRRRRTUx-,>,,,,,,,,,,,,-lIYRRRRRRRRRTRRRU",
"TRRRRRRRRRRRRURYb-,,,,,,,,,,,,,,-lYRRRRRRRRRRYRRUU",
"RRTRRRRRRRRRRRRUko,>:,,,,,,,>,,,;lIRRYRRRRRRRRRTTT",
"HHHHHHHHHHHHHHHHg.@+#XXOOOXXXXX  aDHHHHHHHHHHHHHJH",
"895575007055555qwkkkNMMMjjMjjjmjjy8805777959950098",
";;-;>>>>>>;;>;;;pLUUYYYYUUUYUUUYPm@;;>>>;;>>>;;;:>",
",>,,,,,,,,,,,>,;rLRTTUTURTUTRTYTUc->,,,,,,,>>,,,>>",
">,,,,,,,,,,,,,,;iKRRRRRRRRRRRUURUn-,,,,,,,,,,,,,,>",
">>,,,,,,,,,,,,,;sLRTUURURRRRRRRRUc;>,,,,,,,,,,,,,>",
">>,,,,,,,,,,,,,;sKTURURRRRRRRRURUc;,,,,,,,,,,,,,>>",
",,,,,,,,,,,,,,,;sKTURRRURRRRRRRRUc;,,,,,,,,,,,,,>>",
">,,,,,,,,,,,,,,:sJRRYTRRRRRRRRRRUc;,,,,,,,,,,,,,,>",
",>,,,,,,,,,,,,,>eLRRRYRRRRRRRRRRUm->,,,,,,,,,,,,,>",
">,,,,,,,,,,,,,,;eLRRRTRRRRRRTRRRUc;,,,,,,,,,,,,,,>",
">>,,,,,,,,,,,,,;eKRRRURRRRRRRRRRUc;,,,,,,,,,,,,,>>",
">,>,,,,,,,,,,,,;eLTRYRRRRRRRYRRRPc;,,,,,,,,,,,,,,>",
",,,,,,,,,,,,,,,;eKRYRRRRRRRRRRRRUc-,,,,,,,,,,,,,>>",
">>>>,,,,,,,,,,,:eKRRTRRRRRRRRRRRUn->,,,,,,,>,>,>,>",
">>,,,,,,,,,,,,,>eKYRTYRRRRRRRTTTUmO>,,>,,,,,>,>,>>",
">:,,,,,,,>,,,>>-eLRRTRRRRRRRTRTRIn@>,,,,,,,,>,>>>>",
":<-:@ooo--o-:@@+iGLLLLLLLLLLLLLLKv$;-o-o-----o-o@@"
};
